<?xml version="1.0" standalone="no"?>
<!DOCTYPE svg PUBLIC "-//W3C//DTD SVG 20010904//EN"
 "http://www.w3.org/TR/2001/REC-SVG-20010904/DTD/svg10.dtd">
<svg version="1.0" xmlns="http://www.w3.org/2000/svg"
 width="201.000000pt" height="201.000000pt" viewBox="0 0 201.000000 201.000000"
 preserveAspectRatio="xMidYMid meet">
<metadata>
Created by potrace 1.14, written by Peter Selinger 2001-2017
</metadata>
<g transform="translate(0.000000,201.000000) scale(0.100000,-0.100000)"
fill="#000000" stroke="none">
<path d="M845 1985 c-173 -31 -374 -120 -446 -197 -9 -10 -18 -16 -21 -13 -6
7 -148 -142 -148 -156 0 -7 -3 -9 -7 -6 -3 4 -11 -2 -17 -13 -6 -10 -29 -47
-50 -82 -21 -35 -39 -69 -39 -75 0 -7 -3 -13 -7 -13 -6 0 -39 -85 -41 -105 0
-5 -7 -25 -14 -42 -8 -18 -12 -33 -10 -33 3 0 0 -12 -6 -27 -5 -15 -12 -47
-15 -72 -7 -69 -10 -251 -3 -251 3 0 6 -15 7 -32 1 -31 8 -73 12 -73 3 0 11
-39 13 -62 1 -13 5 -23 10 -23 4 0 7 -7 7 -16 0 -33 110 -242 133 -252 4 -2 7
-8 7 -14 0 -6 11 -21 26 -34 14 -13 23 -24 20 -24 -3 0 16 -23 43 -50 27 -28
52 -50 55 -50 4 0 19 -11 34 -25 15 -14 34 -32 43 -40 9 -8 20 -15 26 -15 6 0
16 -7 23 -15 7 -8 16 -12 21 -9 5 3 9 1 9 -4 0 -10 100 -58 112 -54 4 1 8 -2
8 -7 0 -8 49 -24 65 -22 3 1 19 -6 35 -14 16 -8 32 -15 35 -14 5 1 67 -8 120
-18 40 -7 233 -6 265 1 14 4 36 8 50 11 27 5 60 12 88 19 44 12 138 49 143 58
3 5 9 9 13 8 4 -1 42 18 85 44 80 47 251 199 251 222 0 8 4 14 9 14 7 0 95
127 96 140 1 3 10 23 22 45 26 50 69 192 82 270 14 85 6 276 -14 365 -45 195
-142 361 -289 499 -27 25 -57 54 -68 64 -10 9 -20 17 -23 17 -2 0 -21 12 -42
26 -191 130 -475 190 -708 149z"/>
</g>
</svg>
